<?xml version="1.0" encoding="UTF-8"?>
<svg id="Layer_1" xmlns="http://www.w3.org/2000/svg" width="224" height="150" version="1.1" viewBox="0 0 224 150">
  <!-- Generator: Adobe Illustrator 29.4.0, SVG Export Plug-In . SVG Version: 2.1.0 Build 152)  -->
  <defs>
    <style>
      .st0 {
        fill: #fff;
      }
    </style>
  </defs>
  <g id="GTA_Stack">
    <path id="O" class="st0" d="M154.7378,93.5373c0-2.4069-1.5231-4.6024-4.3107-4.6024h-10.756c-2.7282,0-4.3108,2.1443-4.3108,4.6024v19.4227c0,2.0575,1.5844,4.3106,4.3106,4.3106.0154,0,10.8266-.0105,10.8628-.0115,2.103,0,4.2041-1.7198,4.2041-4.2991v-19.4227ZM146.1159,110.2056h-2.1344v-14.2102h2.1344v14.2102Z"/>
    <path id="T" class="st0" d="M122.5047,88.9328h-8.6212v1.8845h-1.591v6.9584h1.591s-.0004,15.1828-.0004,15.1842c0,2.2937,1.8057,4.3083,4.3106,4.3083h10.7843c2.3933,0,4.3248-1.7892,4.2815-4.3083l-.0008-13.387h-8.6196v10.6298h-2.1344v-12.427h10.7556v-6.9584h-10.7556v-1.8845Z"/>
    <path id="U" class="st0" d="M101.9616,110.2056h-2.1344v-21.2707h-8.6212v24.0251c0,2.1478,1.7041,4.3106,4.3106,4.3106.0154,0,10.837-.0048,10.8785-.006,2.3398,0,4.1885-2.0865,4.1885-4.3046v-24.0251h-8.6219v21.2707Z"/>
    <path id="A" class="st0" d="M84.7192,88.9353h-10.7559c-2.2466,0-4.3106,1.6998-4.3106,4.6024v4.2452h8.6212v-1.7871h2.1344v3.5746h-6.4449c-2.648,0-4.3106,2.1447-4.3106,4.6024v8.7823c0,2.4589,1.9436,4.3106,4.3106,4.3106h15.0669v-23.728c0-2.5984-1.7797-4.6024-4.311-4.6024ZM80.4083,110.2056h-2.1344v-3.6034h2.1344v3.6034Z"/>
    <g id="T1" data-name="T">
      <path class="st0" d="M182.2151,82.4649v-11.5839h-8.6212v8.9014h-2.1344v-10.6633h10.7556v-6.957h-10.7556v-3.3098h-8.6212v3.3098h-1.7029v6.957h1.7029s-.0004,13.3444-.0004,13.3457c0,1.9666,1.5844,4.3035,4.3106,4.3035h10.756c2.709,0,4.3106-2.1706,4.3106-4.3035Z"/>
    </g>
    <g id="F">
      <path class="st0" d="M144.4732,58.8529c-2.2371,0-4.3106,1.8284-4.3106,4.301v23.6216h8.6921v-12.1995h10.7043v-7.0304h-10.7043v-1.7338h10.7043v-6.9589h-15.0858Z"/>
    </g>
    <g id="E">
      <path class="st0" d="M138.0569,82.4649v-4.4192h-8.7v1.7476h-2.1344v-3.5094h10.8344v-13.1204c0-2.6346-2.2584-4.3201-4.311-4.3201,0,0-7.6919,0-10.7778,0-2.524,0-4.31,2.0768-4.31,4.3105v19.311c0,2.2607,1.7258,4.3106,4.3106,4.3106h10.7769c2.0931,0,4.3114-1.5813,4.3114-4.3106ZM127.2225,65.8235h2.1344v3.5019h-2.1344v-3.5019Z"/>
    </g>
    <g id="T2" data-name="T">
      <path class="st0" d="M94.8704,82.4709v-11.5829h-8.6212v8.9014h-2.1344v-10.6633h10.7556v-6.957h-10.7556v-3.3097h-8.6212v3.3097h-1.7029v6.957h1.7029v13.3387c0,2.1272,1.692,4.3106,4.3102,4.3106h10.756c2.571,0,4.3106-2.1031,4.3106-4.3046Z"/>
    </g>
    <path id="D" class="st0" d="M150.9193,17.3054v6.9851l-6.4499.0005c-2.0079,0-4.3057,1.6047-4.3057,4.3104v19.208c0,2.5442,2.0168,4.311,4.3106,4.311h15.0669V17.3054h-8.6219ZM150.9193,45.1355h-2.1344v-13.9589h2.1344v13.9589Z"/>
    <path id="N" class="st0" d="M138.0227,28.5956c0-2.1446-1.6569-4.311-4.311-4.311-2.9299,0-5.0784.5818-6.4454,1.7449v-1.7449h-8.6212v27.8359h8.5573v-20.9568h2.1344v20.9568h8.6858v-23.5249Z"/>
    <path id="A1" data-name="A" class="st0" d="M116.4481,28.6015c0-2.7531-2.3305-4.311-4.311-4.311h-10.756c-2.6869,0-4.3106,2.2307-4.3106,4.311v4.3307h8.6212v-1.7556h2.1344v3.5115s-3.9965.0004-6.4488.0004-4.3068,2.0178-4.3068,4.3105v8.8108c0,2.4535,2.0407,4.3106,4.3108,4.3106h15.0667v-23.519ZM107.8261,45.1355h-2.1344v-3.5119h2.1344v3.5119Z"/>
    <path id="R__x2F__H" class="st0" d="M112.1646,58.8454h-6.4741l.0014-4.8468h-10.812v-12.375c0-1.4499-.7214-2.7257-1.8188-3.5072,1.6085-1.0621,1.8188-2.5204,1.8188-3.4436v-6.0712c0-2.3809-1.93-4.311-4.311-4.311h-15.0665v32.3128h8.6211v-14.9797h2.1344s.0049,12.9286.0049,12.9287c0,2.1922,1.717,4.3106,4.4585,4.3106h6.3197v27.9126h8.6496v-20.9574h2.1344v20.9574h8.6503v-23.6376c0-2.3682-1.9386-4.2925-4.3106-4.2925ZM86.2578,34.6456h-2.1344v-3.4677h2.1344v3.4677Z"/>
    <g id="G">
      <path class="st0" d="M73.3283,56.6351V24.2905s-15.0677.0001-15.0682.0001c-2.3247,0-4.3094,1.9463-4.3094,4.3175v19.2159c0,2.2532,1.7706,4.3035,4.3106,4.3035h6.445v1.8826h-10.7556v6.9354s15.0919-.004,15.1052-.0041c2.5202.0041,4.2723-2.1458,4.2723-4.3064ZM64.7063,45.1284h-2.1344v-13.9588h2.1344v13.9588Z"/>
    </g>
    <path class="st0" d="M157.5567,90.8392c0,.7272-.537,1.1975-1.2008,1.1975s-1.2008-.4703-1.2008-1.1975c0-.7305.537-1.2008,1.2008-1.2008s1.2008.4703,1.2008,1.2008ZM157.3533,90.8392c0-.6204-.4437-1.0107-.9974-1.0107s-1.0007.3902-1.0007,1.0107c0,.6171.447,1.0107,1.0007,1.0107s.9974-.3936.9974-1.0107ZM156.6127,90.9759l.2902.5103h-.2435l-.2602-.4937h-.2935v.4937h-.2068v-1.2942h.5604c.2635,0,.4503.1501.4503.4069,0,.1968-.1167.3302-.2969.3769ZM156.1057,90.8091h.3503c.1501,0,.2435-.0734.2435-.2101,0-.1468-.0934-.2168-.2435-.2168h-.3503v.427Z"/>
  </g>
</svg>